<svg width="19" height="21" viewBox="0 0 19 21" fill="none" xmlns="http://www.w3.org/2000/svg">
<g id="Document">
<path id="Fill 1" fill-rule="evenodd" clip-rule="evenodd" d="M12.7151 15.3606H5.49512C5.08112 15.3606 4.74512 15.0246 4.74512 14.6106C4.74512 14.1966 5.08112 13.8606 5.49512 13.8606H12.7151C13.1291 13.8606 13.4651 14.1966 13.4651 14.6106C13.4651 15.0246 13.1291 15.3606 12.7151 15.3606Z" fill="#2B71F0"/>
<path id="Fill 3" fill-rule="evenodd" clip-rule="evenodd" d="M12.7151 11.1741H5.49512C5.08112 11.1741 4.74512 10.8381 4.74512 10.4241C4.74512 10.0101 5.08112 9.67407 5.49512 9.67407H12.7151C13.1291 9.67407 13.4651 10.0101 13.4651 10.4241C13.4651 10.8381 13.1291 11.1741 12.7151 11.1741Z" fill="#2B71F0"/>
<path id="Fill 5" fill-rule="evenodd" clip-rule="evenodd" d="M8.25012 6.99731H5.49512C5.08112 6.99731 4.74512 6.66131 4.74512 6.24731C4.74512 5.83331 5.08112 5.49731 5.49512 5.49731H8.25012C8.66412 5.49731 9.00012 5.83331 9.00012 6.24731C9.00012 6.66131 8.66412 6.99731 8.25012 6.99731Z" fill="#2B71F0"/>
<g id="Group 9">
<mask id="mask0_5194_1714" style="mask-type:luminance" maskUnits="userSpaceOnUse" x="0" y="0" width="19" height="21">
<path id="Clip 8" fill-rule="evenodd" clip-rule="evenodd" d="M0 0.386963H18.1647V20.2968H0V0.386963Z" fill="white"/>
</mask>
<g mask="url(#mask0_5194_1714)">
<path id="Fill 7" fill-rule="evenodd" clip-rule="evenodd" d="M12.9081 1.88691L5.2191 1.89091C2.8911 1.90491 1.4991 3.34491 1.4991 5.74391V14.9399C1.4991 17.3549 2.9041 18.7969 5.2551 18.7969L12.9441 18.7939C15.2721 18.7799 16.6641 17.3379 16.6641 14.9399V5.74391C16.6641 3.32891 15.2601 1.88691 12.9081 1.88691ZM5.25602 20.297C2.11202 20.297 -0.000976562 18.144 -0.000976562 14.94V5.74396C-0.000976562 2.51096 2.04602 0.409963 5.21402 0.390963L12.907 0.386963H12.908C16.052 0.386963 18.164 2.53996 18.164 5.74396V14.94C18.164 18.172 16.117 20.274 12.949 20.294L5.25602 20.297Z" fill="#2B71F0"/>
</g>
</g>
</g>
</svg>
