<svg viewBox="0 0 22 17" fill="#2B71F0" xmlns="http://www.w3.org/2000/svg">
<g id="3 User">
<g id="Union">
<path fill-rule="evenodd" clip-rule="evenodd" d="M10.8596 9.138H10.8866C13.4066 9.138 15.4556 7.088 15.4556 4.569C15.4556 2.05 13.4066 0 10.8866 0C8.36764 0 6.31864 2.05 6.31864 4.566C6.31364 5.783 6.78264 6.929 7.64064 7.792C8.49664 8.656 9.63964 9.134 10.8596 9.138ZM7.81864 4.569C7.81864 2.877 9.19464 1.5 10.8866 1.5C12.5786 1.5 13.9556 2.877 13.9556 4.569C13.9556 6.262 12.5786 7.638 10.8866 7.638H10.8616C10.0456 7.635 9.27964 7.314 8.70464 6.735C8.12964 6.156 7.81564 5.389 7.81864 4.569Z" fill="#2B71F0"/>
<path d="M16.1447 7.50051C16.1977 7.87551 16.5187 8.14651 16.8867 8.14651C16.9207 8.14651 16.9557 8.14451 16.9907 8.13951C18.7657 7.89051 20.1067 6.35051 20.1107 4.55551C20.1107 2.77251 18.8337 1.26851 17.0757 0.979506C16.6647 0.914506 16.2817 1.18851 16.2137 1.59751C16.1467 2.00651 16.4237 2.39251 16.8317 2.45951C17.8627 2.62851 18.6107 3.51051 18.6107 4.55351C18.6087 5.60551 17.8237 6.50751 16.7837 6.65351C16.3727 6.71051 16.0877 7.08951 16.1447 7.50051Z" fill="#2B71F0"/>
<path d="M19.1603 14.0482C19.2743 14.3472 19.5593 14.5312 19.8613 14.5312C19.9503 14.5312 20.0403 14.5152 20.1283 14.4822C21.5583 13.9372 21.7723 12.9442 21.7723 12.4002C21.7723 11.5092 21.2633 10.3712 18.8403 10.0082C18.4273 9.95515 18.0473 10.2282 17.9863 10.6382C17.9253 11.0492 18.2083 11.4302 18.6173 11.4922C19.7153 11.6562 20.2723 11.9622 20.2723 12.4002C20.2723 12.5372 20.2723 12.8222 19.5943 13.0802C19.2073 13.2272 19.0123 13.6612 19.1603 14.0482Z" fill="#2B71F0"/>
<path fill-rule="evenodd" clip-rule="evenodd" d="M10.8866 16.7909C9.22761 16.7909 4.17761 16.7909 4.17761 13.5959C4.17761 10.4139 9.22761 10.4139 10.8866 10.4139C12.5456 10.4139 17.5946 10.4139 17.5946 13.6129C17.5946 16.7909 12.7216 16.7909 10.8866 16.7909ZM10.8866 11.9139C8.51061 11.9139 5.67761 12.2059 5.67761 13.5959C5.67761 14.9969 8.51061 15.2909 10.8866 15.2909C13.2626 15.2909 16.0946 14.9999 16.0946 13.6129C16.0946 12.2089 13.2626 11.9139 10.8866 11.9139Z" fill="#2B71F0"/>
<path d="M4.8856 8.14645C4.8516 8.14645 4.8166 8.14445 4.7816 8.13945C3.0066 7.89045 1.6666 6.35045 1.6626 4.55745C1.6626 2.77245 2.9396 1.26845 4.6976 0.97945C5.1186 0.91345 5.4916 1.19045 5.5596 1.59745C5.6266 2.00645 5.3496 2.39245 4.9416 2.45945C3.9106 2.62845 3.1626 3.51045 3.1626 4.55545C3.1646 5.60545 3.9496 6.50845 4.9886 6.65345C5.3996 6.71045 5.6846 7.08945 5.6276 7.50045C5.5746 7.87545 5.2536 8.14645 4.8856 8.14645Z" fill="#2B71F0"/>
<path d="M1.645 14.4822C1.733 14.5152 1.823 14.5312 1.912 14.5312C2.214 14.5312 2.499 14.3472 2.613 14.0482C2.761 13.6612 2.566 13.2272 2.179 13.0802C1.5 12.8212 1.5 12.5372 1.5 12.4002C1.5 11.9622 2.057 11.6562 3.155 11.4922C3.564 11.4302 3.847 11.0492 3.786 10.6382C3.724 10.2282 3.346 9.95619 2.933 10.0082C0.509 10.3712 0 11.5102 0 12.4002C0 12.9432 0.214 13.9362 1.645 14.4822Z" fill="#2B71F0"/>
</g>
</g>
</svg>
