<svg viewBox="0 0 63 63" fill="currentColor" xmlns="http://www.w3.org/2000/svg">
<g id="Bold Duotone / Messages, Conversation / Plain">
<path id="Vector" fill-rule="evenodd" clip-rule="evenodd" d="M42.5061 20.7485L55.9155 7.3391L55.9088 7.33236C52.8303 4.25391 46.9984 6.19787 35.3346 10.0858L21.983 14.5364C12.5691 17.6743 7.86222 19.2433 6.52465 21.5441C5.2522 23.7328 5.2522 26.4361 6.52465 28.6249C7.86222 30.9256 12.5691 32.4946 21.983 35.6326C23.1496 36.0215 24.4621 35.7438 25.3357 34.8783L39.6113 20.735C40.4144 19.9393 41.7105 19.9454 42.5061 20.7485Z" fill="#2B71F0"/>
<path id="Vector_2" opacity="0.5" d="M48.7039 41.2565L53.1545 27.9049C57.0396 16.2495 58.9836 10.4176 55.9147 7.3374L42.5053 20.7468C43.301 21.5499 43.295 22.846 42.4918 23.6417L28.4468 37.5565C27.4839 38.5105 27.1791 39.9706 27.6078 41.2565C30.7457 50.6703 32.3147 55.3772 34.6154 56.7148C36.8042 57.9873 39.5075 57.9873 41.6963 56.7148C43.997 55.3772 45.566 50.6703 48.7039 41.2565Z" fill="#2B71F0"/>
</g>
</svg>
