<svg viewBox="0 0 19 20" fill="currentColor" xmlns="http://www.w3.org/2000/svg">
<g id="Document">
<path id="Fill 1" fill-rule="evenodd" clip-rule="evenodd" d="M12.7161 14.9736H5.49609C5.08209 14.9736 4.74609 14.6376 4.74609 14.2236C4.74609 13.8096 5.08209 13.4736 5.49609 13.4736H12.7161C13.1301 13.4736 13.4661 13.8096 13.4661 14.2236C13.4661 14.6376 13.1301 14.9736 12.7161 14.9736Z" fill="currentColor"/>
<path id="Fill 3" fill-rule="evenodd" clip-rule="evenodd" d="M12.7161 10.787H5.49609C5.08209 10.787 4.74609 10.451 4.74609 10.037C4.74609 9.62305 5.08209 9.28705 5.49609 9.28705H12.7161C13.1301 9.28705 13.4661 9.62305 13.4661 10.037C13.4661 10.451 13.1301 10.787 12.7161 10.787Z" fill="currentColor"/>
<path id="Fill 5" fill-rule="evenodd" clip-rule="evenodd" d="M8.25012 6.61023H5.49512C5.08112 6.61023 4.74512 6.27423 4.74512 5.86023C4.74512 5.44623 5.08112 5.11023 5.49512 5.11023H8.25012C8.66412 5.11023 9.00012 5.44623 9.00012 5.86023C9.00012 6.27423 8.66412 6.61023 8.25012 6.61023Z" fill="currentColor"/>
<g id="Group 9">
<mask id="mask0_3577_1892" style="mask-type:luminance" maskUnits="userSpaceOnUse" x="0" y="0" width="19" height="20">
<path id="Clip 8" fill-rule="evenodd" clip-rule="evenodd" d="M0 6.10352e-05H18.1647V19.9099H0V6.10352e-05Z" fill="currentColor"/>
</mask>
<g mask="url(#mask0_3577_1892)">
<path id="Fill 7" fill-rule="evenodd" clip-rule="evenodd" d="M12.9092 1.49982L5.22019 1.50382C2.89219 1.51782 1.50019 2.95782 1.50019 5.35682V14.5528C1.50019 16.9678 2.90519 18.4098 5.25619 18.4098L12.9452 18.4068C15.2732 18.3928 16.6652 16.9508 16.6652 14.5528V5.35682C16.6652 2.94182 15.2612 1.49982 12.9092 1.49982ZM5.257 19.9098C2.113 19.9098 0 17.7568 0 14.5528V5.35682C0 2.12382 2.047 0.0228169 5.215 0.00381689L12.908 -0.000183105H12.909C16.053 -0.000183105 18.165 2.15282 18.165 5.35682V14.5528C18.165 17.7848 16.118 19.8868 12.95 19.9068L5.257 19.9098Z" fill="currentColor"/>
</g>
</g>
</g>
</svg>
