<svg viewBox="0 0 20 22" fill="none" xmlns="http://www.w3.org/2000/svg">
<g id="Calendar">
<path id="Fill 1" fill-rule="evenodd" clip-rule="evenodd" d="M18.6668 8.9043H0.842773C0.428773 8.9043 0.0927734 8.5683 0.0927734 8.1543C0.0927734 7.7403 0.428773 7.4043 0.842773 7.4043H18.6668C19.0808 7.4043 19.4168 7.7403 19.4168 8.1543C19.4168 8.5683 19.0808 8.9043 18.6668 8.9043Z" fill="#2B71F0"/>
<path id="Fill 3" fill-rule="evenodd" clip-rule="evenodd" d="M14.2013 12.8096C13.7873 12.8096 13.4473 12.4736 13.4473 12.0596C13.4473 11.6456 13.7783 11.3096 14.1923 11.3096H14.2013C14.6153 11.3096 14.9513 11.6456 14.9513 12.0596C14.9513 12.4736 14.6153 12.8096 14.2013 12.8096Z" fill="#2B71F0"/>
<path id="Fill 5" fill-rule="evenodd" clip-rule="evenodd" d="M9.76377 12.8096C9.34977 12.8096 9.00977 12.4736 9.00977 12.0596C9.00977 11.6456 9.34077 11.3096 9.75477 11.3096H9.76377C10.1778 11.3096 10.5138 11.6456 10.5138 12.0596C10.5138 12.4736 10.1778 12.8096 9.76377 12.8096Z" fill="#2B71F0"/>
<path id="Fill 7" fill-rule="evenodd" clip-rule="evenodd" d="M5.31652 12.8096C4.90252 12.8096 4.56152 12.4736 4.56152 12.0596C4.56152 11.6456 4.89352 11.3096 5.30752 11.3096H5.31652C5.73052 11.3096 6.06652 11.6456 6.06652 12.0596C6.06652 12.4736 5.73052 12.8096 5.31652 12.8096Z" fill="#2B71F0"/>
<path id="Fill 9" fill-rule="evenodd" clip-rule="evenodd" d="M14.2013 16.6963C13.7873 16.6963 13.4473 16.3603 13.4473 15.9463C13.4473 15.5323 13.7783 15.1963 14.1923 15.1963H14.2013C14.6153 15.1963 14.9513 15.5323 14.9513 15.9463C14.9513 16.3603 14.6153 16.6963 14.2013 16.6963Z" fill="#2B71F0"/>
<path id="Fill 11" fill-rule="evenodd" clip-rule="evenodd" d="M9.76377 16.6963C9.34977 16.6963 9.00977 16.3603 9.00977 15.9463C9.00977 15.5323 9.34077 15.1963 9.75477 15.1963H9.76377C10.1778 15.1963 10.5138 15.5323 10.5138 15.9463C10.5138 16.3603 10.1778 16.6963 9.76377 16.6963Z" fill="#2B71F0"/>
<path id="Fill 13" fill-rule="evenodd" clip-rule="evenodd" d="M5.31652 16.6963C4.90252 16.6963 4.56152 16.3603 4.56152 15.9463C4.56152 15.5323 4.89352 15.1963 5.30752 15.1963H5.31652C5.73052 15.1963 6.06652 15.5323 6.06652 15.9463C6.06652 16.3603 5.73052 16.6963 5.31652 16.6963Z" fill="#2B71F0"/>
<path id="Fill 15" fill-rule="evenodd" clip-rule="evenodd" d="M13.7939 4.791C13.3799 4.791 13.0439 4.455 13.0439 4.041V0.75C13.0439 0.336 13.3799 0 13.7939 0C14.2079 0 14.5439 0.336 14.5439 0.75V4.041C14.5439 4.455 14.2079 4.791 13.7939 4.791Z" fill="#2B71F0"/>
<path id="Fill 17" fill-rule="evenodd" clip-rule="evenodd" d="M5.71484 4.791C5.30084 4.791 4.96484 4.455 4.96484 4.041V0.75C4.96484 0.336 5.30084 0 5.71484 0C6.12884 0 6.46484 0.336 6.46484 0.75V4.041C6.46484 4.455 6.12884 4.791 5.71484 4.791Z" fill="#2B71F0"/>
<g id="Group 21">
<mask id="mask0_4785_1057" style="mask-type:luminance" maskUnits="userSpaceOnUse" x="0" y="1" width="20" height="21">
<path id="Clip 20" fill-rule="evenodd" clip-rule="evenodd" d="M0 1.5791H19.5V21.5H0V1.5791Z" fill="white"/>
</mask>
<g mask="url(#mask0_4785_1057)">
<path id="Fill 19" fill-rule="evenodd" clip-rule="evenodd" d="M5.521 3.0791C2.928 3.0791 1.5 4.4621 1.5 6.9731V16.0221C1.5 18.5881 2.928 20.0001 5.521 20.0001H13.979C16.572 20.0001 18 18.6141 18 16.0981V6.9731C18.004 5.7381 17.672 4.7781 17.013 4.1181C16.335 3.4381 15.29 3.0791 13.988 3.0791H5.521ZM13.979 21.5001H5.521C2.116 21.5001 0 19.4011 0 16.0221V6.9731C0 3.6451 2.116 1.5791 5.521 1.5791H13.988C15.697 1.5791 17.11 2.0911 18.075 3.0581C19.012 3.9991 19.505 5.3521 19.5 6.9751V16.0981C19.5 19.4301 17.384 21.5001 13.979 21.5001Z" fill="#2B71F0"/>
</g>
</g>
</g>
</svg>
