<svg width="20" height="20" viewBox="0 0 20 20" fill="none" xmlns="http://www.w3.org/2000/svg">
<g id="icon / file">
<g id="icon">
<path d="M5.83333 9.99998C5.83333 9.53974 6.20643 9.16665 6.66667 9.16665H13.3333C13.7936 9.16665 14.1667 9.53974 14.1667 9.99998C14.1667 10.4602 13.7936 10.8333 13.3333 10.8333H6.66667C6.20643 10.8333 5.83333 10.4602 5.83333 9.99998Z" fill="white"/>
<path d="M6.66667 13.3333C6.20643 13.3333 5.83333 13.7064 5.83333 14.1666C5.83333 14.6269 6.20643 15 6.66667 15H13.3333C13.7936 15 14.1667 14.6269 14.1667 14.1666C14.1667 13.7064 13.7936 13.3333 13.3333 13.3333H6.66667Z" fill="white"/>
<path fill-rule="evenodd" clip-rule="evenodd" d="M5.83333 0.833313C3.99238 0.833313 2.5 2.3257 2.5 4.16665V15.8333C2.5 17.6743 3.99238 19.1666 5.83333 19.1666H14.1667C16.0076 19.1666 17.5 17.6743 17.5 15.8333V7.57177C17.5 6.79198 17.2266 6.03687 16.7274 5.43782L13.8898 2.0327C13.2565 1.27272 12.3183 0.833313 11.3291 0.833313H5.83333ZM4.16667 4.16665C4.16667 3.24617 4.91286 2.49998 5.83333 2.49998H10.8333V4.99998C10.8333 6.84093 12.3257 8.33331 14.1667 8.33331H15.8333V15.8333C15.8333 16.7538 15.0871 17.5 14.1667 17.5H5.83333C4.91286 17.5 4.16667 16.7538 4.16667 15.8333V4.16665ZM15.5661 6.66665C15.5299 6.61059 15.4901 6.55653 15.447 6.5048L12.6094 3.09967C12.5747 3.05803 12.5382 3.01831 12.5 2.9806V4.99998C12.5 5.92045 13.2462 6.66665 14.1667 6.66665H15.5661Z" fill="white"/>
</g>
</g>
</svg>
