<svg width="20" height="20" viewBox="0 0 20 20" fill="none" xmlns="http://www.w3.org/2000/svg">
<g id="icon / gift">
<path id="icon" fill-rule="evenodd" clip-rule="evenodd" d="M11.4149 1.75396L10.4163 2.6617L9.41783 1.75396C7.85578 0.333911 5.67216 1.60958 5.60866 3.33337H3.33301C1.9523 3.33337 0.833008 4.45266 0.833008 5.83337V7.40744C0.833008 8.07755 1.20766 8.66015 1.75893 8.9572V15.8334C1.75893 17.6743 3.25132 19.1667 5.09227 19.1667H14.9071C16.748 19.1667 18.2404 17.6743 18.2404 15.8334V8.9572C18.7917 8.66015 19.1663 8.07755 19.1663 7.40744V5.83337C19.1663 4.45266 18.0471 3.33337 16.6663 3.33337H15.224C15.1605 1.60958 12.9769 0.333911 11.4149 1.75396ZM6.68161 5.00004C6.67195 5.0002 6.66229 5.0002 6.65264 5.00004H3.33301C2.87277 5.00004 2.49967 5.37313 2.49967 5.83337V7.40744C2.49967 7.45858 2.54113 7.50004 2.59227 7.50004H17.4071C17.4582 7.50004 17.4997 7.45858 17.4997 7.40744V5.83337C17.4997 5.37313 17.1266 5.00004 16.6663 5.00004H14.18C14.1704 5.0002 14.1607 5.0002 14.1511 5.00004H6.68161ZM11.2497 9.1667H8.74967V11.4063C8.74967 11.435 8.75663 11.4485 8.76191 11.4565C8.76917 11.4675 8.78246 11.4805 8.8023 11.49C8.82214 11.4996 8.84057 11.5018 8.85371 11.5006C8.86325 11.4997 8.87814 11.4967 8.90052 11.4788C9.54312 10.9648 10.4562 10.9648 11.0988 11.4788C11.1212 11.4967 11.1361 11.4997 11.1456 11.5006C11.1588 11.5018 11.1772 11.4996 11.197 11.49C11.2169 11.4805 11.2302 11.4675 11.2374 11.4565C11.2427 11.4485 11.2497 11.435 11.2497 11.4063V9.1667ZM7.08301 9.1667V11.4063C7.08301 12.8817 8.78961 13.7019 9.94167 12.7803C9.97558 12.7532 10.0238 12.7532 10.0577 12.7803C11.2097 13.7019 12.9163 12.8817 12.9163 11.4063V9.1667H16.5737V15.8334C16.5737 16.7538 15.8276 17.5 14.9071 17.5H5.09227C4.17179 17.5 3.4256 16.7538 3.4256 15.8334V9.1667H7.08301ZM8.29671 2.98719L8.6775 3.33337H7.29751C7.36756 2.91541 7.90579 2.63182 8.29671 2.98719ZM13.5352 3.33337C13.4651 2.91541 12.9269 2.63182 12.536 2.98719L12.1552 3.33337H13.5352Z" fill="white"/>
</g>
</svg>
