<svg width="20" height="20" viewBox="0 0 20 20" fill="none" xmlns="http://www.w3.org/2000/svg">
<g id="icon / headset">
<path id="icon" fill-rule="evenodd" clip-rule="evenodd" d="M10.0004 2.5C5.39808 2.5 1.66711 6.23096 1.66711 10.8333V13.3201C1.66695 13.3296 1.66695 13.3391 1.66711 13.3486V15.3431C1.66711 16.5343 2.63278 17.5 3.82398 17.5C5.01518 17.5 5.98084 16.5343 5.98084 15.3431V13.5422C5.98084 11.9241 4.5518 11.1746 3.33378 11.4231V10.8333C3.33378 7.15144 6.31855 4.16667 10.0004 4.16667C13.6823 4.16667 16.6671 7.15144 16.6671 10.8333V11.4143C15.4495 11.1655 14.0201 11.9126 14.0201 13.5324V15.3431C14.0201 15.7402 14.1273 16.1122 14.3145 16.4317C13.5769 16.7984 12.5704 17.0834 11.2504 17.0834C10.7902 17.0834 10.4171 17.4565 10.4171 17.9167C10.4171 18.3769 10.7902 18.75 11.2504 18.75C13.287 18.75 14.7967 18.1755 15.8308 17.4724C15.9435 17.4906 16.0591 17.5 16.1769 17.5C17.3681 17.5 18.3338 16.5343 18.3338 15.3431V13.3482C18.3339 13.339 18.3339 13.3298 18.3338 13.3206V10.8333C18.3338 6.23096 14.6028 2.5 10.0004 2.5ZM16.0437 15.815C16.0861 15.827 16.1308 15.8333 16.1769 15.8333C16.4476 15.8333 16.6671 15.6139 16.6671 15.3431V13.4069C16.6329 13.2496 16.562 13.1698 16.4973 13.1234C16.4131 13.063 16.2887 13.0255 16.1471 13.0361C16.0055 13.0468 15.8881 13.1025 15.8138 13.1748C15.7509 13.2361 15.6867 13.3386 15.6867 13.5324V15.3431C15.6867 15.5258 15.7867 15.6852 15.9349 15.7695C15.972 15.782 16.0084 15.7972 16.0437 15.815ZM3.33378 15.3431V13.4106C3.36926 13.2559 3.43999 13.1771 3.5048 13.1311C3.58943 13.0711 3.7138 13.0342 3.85495 13.0453C3.9961 13.0565 4.11315 13.1124 4.18731 13.185C4.2503 13.2466 4.31417 13.3493 4.31417 13.5422V15.3431C4.31417 15.6139 4.09471 15.8333 3.82398 15.8333C3.55325 15.8333 3.33378 15.6139 3.33378 15.3431Z" fill="white"/>
</g>
</svg>
