<svg width="20" height="20" viewBox="0 0 20 20" fill="none" xmlns="http://www.w3.org/2000/svg">
<g id="icon / home">
<path id="icon" fill-rule="evenodd" clip-rule="evenodd" d="M11.9118 1.98751C10.764 1.1841 9.23642 1.18409 8.08868 1.98751L2.35737 5.99943C1.39185 6.67529 0.855001 7.81077 0.945392 8.98586L1.53291 16.6236C1.64371 18.064 2.94888 19.111 4.3791 18.9067L7.02044 18.5294C8.25207 18.3534 9.16689 17.2986 9.16689 16.0545V15C9.16689 14.5397 9.53998 14.1666 10.0002 14.1666C10.4605 14.1666 10.8336 14.5397 10.8336 15V16.0545C10.8336 17.2986 11.7484 18.3534 12.98 18.5294L15.6214 18.9067C17.0516 19.111 18.3567 18.064 18.4675 16.6236L19.0551 8.98586C19.1454 7.81077 18.6086 6.67529 17.6431 5.99943L11.9118 1.98751ZM9.04445 3.35289C9.61832 2.95119 10.3821 2.95119 10.956 3.3529L16.6873 7.36482C17.1701 7.70275 17.4385 8.27048 17.3933 8.85803L16.8058 16.4957C16.7688 16.9759 16.3338 17.3249 15.8571 17.2568L13.2157 16.8794C12.8052 16.8208 12.5002 16.4692 12.5002 16.0545V15C12.5002 13.6193 11.3809 12.5 10.0002 12.5C8.61951 12.5 7.50022 13.6193 7.50022 15V16.0545C7.50022 16.4692 7.19528 16.8208 6.78474 16.8794L4.1434 17.2568C3.66666 17.3249 3.2316 16.9759 3.19467 16.4957L2.60715 8.85803C2.56195 8.27048 2.83038 7.70275 3.31314 7.36481L9.04445 3.35289Z" fill="#2B71F0"/>
</g>
</svg>
