<svg viewBox="0 0 20 20" fill="currentColor" xmlns="http://www.w3.org/2000/svg">
<g id="icon / settings">
<g id="icon">
<path fill-rule="evenodd" clip-rule="evenodd" d="M9.99948 5.00007C7.23806 5.00007 4.99948 7.23864 4.99948 10.0001C4.99948 12.7615 7.23806 15.0001 9.99948 15.0001C12.7609 15.0001 14.9995 12.7615 14.9995 10.0001C14.9995 7.23864 12.7609 5.00007 9.99948 5.00007ZM6.66615 10.0001C6.66615 8.15912 8.15853 6.66673 9.99948 6.66673C11.8404 6.66673 13.3328 8.15912 13.3328 10.0001C13.3328 11.841 11.8404 13.3334 9.99948 13.3334C8.15853 13.3334 6.66615 11.841 6.66615 10.0001Z" fill="currentColor"/>
<path fill-rule="evenodd" clip-rule="evenodd" d="M12.0843 1.69082C10.9219 0.566277 9.07708 0.566277 7.91464 1.69082C7.61939 1.97644 7.20885 2.10984 6.8021 2.0523C5.20069 1.82579 3.7082 2.91015 3.42876 4.50318C3.35778 4.9078 3.10405 5.25703 2.74117 5.44956C1.31246 6.2076 0.742379 7.96213 1.45267 9.41517C1.63308 9.78423 1.63308 10.2159 1.45267 10.585C0.742378 12.038 1.31246 13.7925 2.74117 14.5506C3.10405 14.7431 3.35778 15.0923 3.42876 15.497C3.7082 17.09 5.20069 18.1743 6.8021 17.9478C7.20885 17.8903 7.61939 18.0237 7.91464 18.3093C9.07708 19.4339 10.9219 19.4339 12.0843 18.3093C12.3796 18.0237 12.7901 17.8903 13.1969 17.9478C14.7983 18.1743 16.2908 17.09 16.5702 15.497C16.6412 15.0923 16.8949 14.7431 17.2578 14.5506C18.6865 13.7925 19.2566 12.038 18.5463 10.585C18.3659 10.2159 18.3659 9.78423 18.5463 9.41517C19.2566 7.96213 18.6865 6.2076 17.2578 5.44956C16.8949 5.25703 16.6412 4.9078 16.5702 4.50318C16.2908 2.91015 14.7983 1.82579 13.1969 2.0523C12.7901 2.10984 12.3796 1.97644 12.0843 1.69082ZM9.07347 2.88869C9.58978 2.38921 10.4092 2.38921 10.9255 2.88869C11.5902 3.53175 12.5145 3.83207 13.4303 3.70254C14.1416 3.60194 14.8045 4.08357 14.9286 4.79114C15.0884 5.70211 15.6596 6.48836 16.4766 6.92184C17.1112 7.25853 17.3644 8.03783 17.049 8.68322C16.6428 9.51414 16.6428 10.486 17.049 11.3169C17.3644 11.9623 17.1112 12.7416 16.4766 13.0783C15.6596 13.5118 15.0884 14.298 14.9286 15.209C14.8045 15.9166 14.1416 16.3982 13.4303 16.2976C12.5145 16.1681 11.5902 16.4684 10.9255 17.1114C10.4092 17.6109 9.58978 17.6109 9.07347 17.1114C8.40874 16.4684 7.48445 16.1681 6.56869 16.2976C5.85739 16.3982 5.19448 15.9166 5.07036 15.209C4.91056 14.298 4.33932 13.5118 3.52232 13.0783C2.88773 12.7416 2.63452 11.9623 2.95001 11.3169C3.35618 10.486 3.35618 9.51414 2.95001 8.68322C2.63452 8.03783 2.88773 7.25853 3.52232 6.92184C4.33932 6.48836 4.91056 5.70211 5.07036 4.79114C5.19448 4.08357 5.85739 3.60194 6.56869 3.70254C7.48445 3.83207 8.40874 3.53175 9.07347 2.88869Z" fill="currentColor"/>
</g>
</g>
</svg>
