<svg  viewBox="0 0 20 17" fill="currentColor" xmlns="http://www.w3.org/2000/svg">
<g id="Show">
<path id="Fill 1" fill-rule="evenodd" clip-rule="evenodd" d="M9.99987 6.1413C8.66987 6.1413 7.58887 7.2233 7.58887 8.5533C7.58887 9.8823 8.66987 10.9633 9.99987 10.9633C11.3299 10.9633 12.4119 9.8823 12.4119 8.5533C12.4119 7.2233 11.3299 6.1413 9.99987 6.1413ZM9.99987 12.4633C7.84287 12.4633 6.08887 10.7093 6.08887 8.5533C6.08887 6.3963 7.84287 4.6413 9.99987 4.6413C12.1569 4.6413 13.9119 6.3963 13.9119 8.5533C13.9119 10.7093 12.1569 12.4633 9.99987 12.4633Z" fill="white"/>
<g id="Group 5">
<mask id="mask0_3826_2411" style="mask-type:luminance" maskUnits="userSpaceOnUse" x="0" y="0" width="20" height="17">
<path id="Clip 4" fill-rule="evenodd" clip-rule="evenodd" d="M0 0.500183H19.9998V16.6052H0V0.500183Z" fill="white"/>
</mask>
<g mask="url(#mask0_3826_2411)">
<path id="Fill 3" fill-rule="evenodd" clip-rule="evenodd" d="M1.56975 8.55251C3.42975 12.6615 6.56275 15.1045 9.99975 15.1055C13.4368 15.1045 16.5697 12.6615 18.4298 8.55251C16.5697 4.44451 13.4368 2.00151 9.99975 2.00051C6.56375 2.00151 3.42975 4.44451 1.56975 8.55251ZM10.0017 16.6055H9.99775H9.99675C5.86075 16.6025 2.14675 13.7035 0.06075 8.84851C-0.02025 8.65951 -0.02025 8.44551 0.06075 8.25651C2.14675 3.40251 5.86175 0.503506 9.99675 0.500506C9.99875 0.499506 9.99875 0.499506 9.99975 0.500506C10.0017 0.499506 10.0017 0.499506 10.0028 0.500506C14.1388 0.503506 17.8527 3.40251 19.9387 8.25651C20.0208 8.44551 20.0208 8.65951 19.9387 8.84851C17.8537 13.7035 14.1388 16.6025 10.0028 16.6055H10.0017Z" fill="white"/>
</g>
</g>
</g>
</svg>
