<svg width="20" height="20" viewBox="0 0 20 20" fill="none" xmlns="http://www.w3.org/2000/svg">
<g id="icon / sign-out">
<g id="icon">
<path d="M6.25033 3.33329C6.71056 3.33329 7.08366 2.9602 7.08366 2.49996C7.08366 2.03972 6.71056 1.66663 6.25033 1.66663H5.00033C3.15938 1.66663 1.66699 3.15901 1.66699 4.99996V15C1.66699 16.8409 3.15938 18.3333 5.00033 18.3333H6.25033C6.71056 18.3333 7.08366 17.9602 7.08366 17.5C7.08366 17.0397 6.71056 16.6666 6.25033 16.6666H5.00033C4.07985 16.6666 3.33366 15.9204 3.33366 15L3.33366 4.99996C3.33366 4.07948 4.07985 3.33329 5.00033 3.33329H6.25033Z" fill="white"/>
<path d="M18.9229 10.5892C19.2484 10.2638 19.2484 9.73614 18.9229 9.4107L15.5896 6.07737C15.2641 5.75193 14.7365 5.75193 14.4111 6.07737C14.0856 6.40281 14.0856 6.93044 14.4111 7.25588L16.3218 9.16663L6.66699 9.16663C6.20675 9.16663 5.83366 9.53972 5.83366 9.99996C5.83366 10.4602 6.20675 10.8333 6.66699 10.8333L16.3218 10.8333L14.4111 12.744C14.0856 13.0695 14.0856 13.5971 14.4111 13.9225C14.7365 14.248 15.2641 14.248 15.5896 13.9225L18.9229 10.5892Z" fill="white"/>
</g>
</g>
</svg>
